<?xml version="1.0" encoding="utf-8"?>
<!-- Generator: Adobe Illustrator 25.3.1, SVG Export Plug-In . SVG Version: 6.00 Build 0)  -->
<svg version="1.1" id="Layer_1" xmlns="http://www.w3.org/2000/svg" xmlns:xlink="http://www.w3.org/1999/xlink" x="0px" y="0px"
	 viewBox="0 0 1024 1024" style="enable-background:new 0 0 1024 1024;" xml:space="preserve">
<style type="text/css">
	.st0{fill:none;stroke:#FAA62D;stroke-width:2.975;stroke-linecap:round;stroke-linejoin:round;stroke-miterlimit:10;}
	.st1{fill:none;stroke:#C62127;stroke-width:2.975;stroke-linecap:round;stroke-linejoin:round;stroke-miterlimit:10;}
	.st2{fill:#FAA62D;}
	.st3{fill:#FDD800;}
</style>
<g>
	<g>
		<g>
			<g>
				<path class="st0" d="M85.01,644.51c-9.93-37.67-15.19-77.29-15.19-118.14c0-79.25,19.85-153.78,54.76-218.72
					C188.62,188.57,303.2,101.96,438.44,78.6"/>
				<path class="st0" d="M949.12,594.76C916.9,812.73,733.16,980.35,511.93,980.35c-175.46,0-327.33-105.44-398.72-257.87"/>
				<path class="st0" d="M512,72.33c243.84,0,442.18,203.67,442.18,454.05"/>
			</g>
			<g>
				<path class="st1" d="M11.18,526.37c0-178.82,89.34-336.65,224.64-428.87"/>
				<path class="st1" d="M284.2,984.33c-94.14-49.55-171.13-128.87-219.05-225.74"/>
				<path class="st1" d="M848.2,907.24c-20.91,19.44-43.39,37.13-67.19,52.79"/>
				<path class="st1" d="M578.66,16.63C673.4,29.6,759.85,69.9,830.26,129.57c111.43,94.37,182.56,237.22,182.56,396.8
					c0,104.03-30.24,200.97-82.18,281.97"/>
				<path class="st1" d="M283.94,68.55c68.44-36.12,145.95-56.44,227.99-56.44"/>
			</g>
			<path class="st2" d="M925.45,526.37c0,234.52-185.13,424.61-413.52,424.61S98.48,760.89,98.48,526.37
				s185.13-424.61,413.45-424.61C740.32,101.76,925.45,291.86,925.45,526.37z"/>
			<g>
				<path class="st1" d="M238.65,355.78c47.6-80.06,127.54-137.71,221.09-153.51"/>
				<path class="st1" d="M809.61,646.94c-20.18,52.32-53.05,98.09-94.73,133.26"/>
				<path class="st1" d="M512,197.82c176.39,0,319.9,147.37,319.9,328.48"/>
			</g>
			<g>
				<path class="st1" d="M264.68,820.5c-80.34-71.35-131.29-176.73-131.29-294.12c0-103.22,39.38-197.19,103.54-266.92"/>
				<path class="st1" d="M512,915.14c-69.03,0-133.72-19.04-189.53-52.32"/>
				<path class="st1" d="M886.79,581.32c-16.3,117.73-84.22,218.72-179.34,277.85"/>
				<path class="st1" d="M294,208.69c61.67-44.76,136.87-71.08,218-71.08c208.8,0,378.61,174.37,378.61,388.77"/>
			</g>
			<path class="st3" d="M728.62,526.37c0,122.86-96.97,222.43-216.68,222.43c-119.65,0-216.62-99.57-216.62-222.43
				s96.97-222.43,216.62-222.43C631.65,303.87,728.62,403.51,728.62,526.37z"/>
		</g>
	</g>
</g>
</svg>
