<?xml version="1.0" encoding="utf-8"?>
<!-- Generator: Adobe Illustrator 25.3.1, SVG Export Plug-In . SVG Version: 6.00 Build 0)  -->
<svg version="1.1" id="Layer_1" xmlns="http://www.w3.org/2000/svg" xmlns:xlink="http://www.w3.org/1999/xlink" x="0px" y="0px"
	 viewBox="0 0 1024 1024" style="enable-background:new 0 0 1024 1024;" xml:space="preserve">
<style type="text/css">
	.st0{fill:#FCD7D7;}
	.st1{fill:#CFB0B0;}
	.st2{fill:#AE724A;}
</style>
<g>
	<path class="st0" d="M1018.11,511.56c0,279.49-226.62,506.11-506.11,506.11S5.89,791.05,5.89,511.56S232.51,5.44,512,5.44
		C791.49,5.44,1018.11,232.06,1018.11,511.56z"/>
	<path class="st1" d="M512,5.44c279.49,0,506.11,226.62,506.11,506.11c0,279.49-226.62,506.11-506.11,506.11"/>
	<path class="st2" d="M750.73,878.39c-45.18-0.47-62.19,23.76-62.42,40.53c-0.23,24.46,16.07,44.72,38.43,51.01
		c49.14-23.06,93.86-53.8,132.76-90.37L750.73,878.39z"/>
	<path class="st2" d="M220.86,763.8l-146.73,1.4c19.56,33.77,42.86,64.98,69.41,93.16l87.57-0.7c29.11-0.23,52.4-23.99,52.17-53.1
		C283.28,787.55,266.05,763.33,220.86,763.8z"/>
	<path class="st2" d="M1018.11,511.56c0-24.22-1.86-47.98-5.12-71.27l-358.21-3.49c-29.11-0.23-52.87,23.06-53.1,51.94
		c-0.23,29.11,23.06,52.87,51.94,53.1l238.73,2.1c29.11,0.23,52.4,23.99,52.17,53.1c-0.47,28.88-23.99,52.17-53.1,51.94l-144.87-1.4
		c-29.11-0.23-52.87,25.15-53.1,56.36c-0.23,31.44,22.83,57.06,51.94,57.3l205.43,1.86C993.42,689.27,1018.11,603.32,1018.11,511.56
		z"/>
	<path class="st2" d="M782.41,221.82c-0.23,29.11,23.06,52.87,52.17,53.1l125.3,1.16c-17.93-34-39.59-65.45-64.28-94.33l-50.77-0.47
		C799.64,180.59,782.64,205.05,782.41,221.82z"/>
	<g>
		<path class="st2" d="M433.28,503.87l-378.01-3.49c-21.19-0.23-39.13-14.67-47.28-34.94c-1.4,15.14-2.1,30.51-2.1,46.12
			c0,27.95,2.33,55.43,6.75,82.22l58.93,0.47l370.33,3.49c28.88,0.23,52.64-23.06,52.87-51.94
			C495.23,528.79,478.23,504.34,433.28,503.87z"/>
		<path class="st2" d="M18,401.62c9.78-11.41,23.29-18.63,38.43-18.4l16.77,0.23l297.42,2.79c29.11,0.23,52.64-24.92,53.1-56.36
			c0.47-31.44-23.06-57.06-51.94-57.3l-145.1-1.4c-29.11-0.23-52.4-23.99-52.17-53.1c0.23-28.88,24.22-52.17,53.1-51.94l197.04,1.86
			c29.11,0.47,52.87-22.82,53.1-51.94c0.23-29.11-23.06-52.64-52.17-53.1l-144.87-1.4C149.36,128.89,51.07,253.03,18,401.62z"/>
	</g>
</g>
</svg>
