<?xml version="1.0" encoding="utf-8"?>
<!-- Generator: Adobe Illustrator 25.3.1, SVG Export Plug-In . SVG Version: 6.00 Build 0)  -->
<svg version="1.1" id="Layer_1" xmlns="http://www.w3.org/2000/svg" xmlns:xlink="http://www.w3.org/1999/xlink" x="0px" y="0px"
	 viewBox="0 0 1024 1024" style="enable-background:new 0 0 1024 1024;" xml:space="preserve">
<style type="text/css">
	.st0{fill:#9DDBF8;}
	.st1{fill:#0B8BC4;}
	.st2{fill:#98CA3F;}
	.st3{fill:#5CBA48;}
</style>
<g>
	<g>
		<path class="st0" d="M1017.56,512.11c0,279.11-226.36,505.56-505.56,505.56S6.44,791.38,6.44,512.11
			C6.44,233.01,232.8,6.72,512,6.72S1017.56,233.01,1017.56,512.11"/>
		<g>
			<path class="st1" d="M642.18,115.87c-279.2,0-505.56,226.28-505.56,505.56c0,124.81,45.34,238.78,120.18,326.93
				c75.01,43.82,162.02,69.15,255.19,69.15c279.2,0,505.56-226.28,505.56-505.56c0-124.81-45.34-238.78-120.18-326.93
				C822.53,141.19,735.36,115.87,642.18,115.87"/>
		</g>
	</g>
	<path class="st2" d="M21.61,388.64c10.33,5,19.84,10.5,27.17,17c45.5,40.32,41.67-0.67,82.01-46.16
		c40.34-45.49,49.34-92.31,101.51-15c52.34,77.48-58.51,118.31-9.17,140.64c49.17,22.33,72.84,56.32,111.01,94.48
		c38.17,38.32,28.34,99.15,51.17,109.81c22.84,10.66,30.17-6.33,32.34-51.82c2.17-45.66-5.17-47.66,23.84-59.99
		c29-12.16,32.17,4.67,52.01,56.65c19.84,51.99,49.17,22.33,78.34,10.16c29-12.16,6.83-39.49,0.33-93.98
		c-6.33-54.49-5.5-30.33-45.34-57.82s18-34.49,69.51-57.82c51.34-23.16,108.68-33.66,141.35-63.82c32.84-30.33,0.33-55.65-32-80.98
		c-32.34-25.33,19.34-65.99,54.17-103.64s-9.83-53.82-9.83-53.82s-174.35,35.16-161.35,11.83C601.84,121.2,546,79.04,546,79.04
		s-4.17-39.32-13.17-71.98c-7-0.33-14.17-0.5-21.34-0.5C275.31,6.72,76.79,169.19,21.61,388.64z"/>
	<path class="st3" d="M750.36,132.53c0,0-174.35,35.16-161.35,11.83c4.17-7.16,1.5-16.16-4-25.16
		c-149.02,16.66-278.36,98.15-359.37,215.62c2.17,3,4.5,6.17,6.83,9.66c52.34,77.48-58.51,118.31-9.17,140.64
		c49.17,22.33,72.84,56.32,111.01,94.48c38.17,38.32,28.34,99.15,51.17,109.81c22.84,10.66,30.17-6.33,32.34-51.82
		c2.17-45.66-5.17-47.66,23.84-59.99c29-12.16,32.17,4.67,52.01,56.65c19.84,51.99,49.17,22.33,78.34,10.16
		c29-12.16,6.83-39.49,0.33-93.98c-6.33-54.49-5.5-30.33-45.34-57.82s18-34.49,69.51-57.82c51.34-23.16,108.68-33.66,141.35-63.82
		c32.84-30.33,0.33-55.65-32-80.98c-32.34-25.33,19.34-65.99,54.17-103.64C795.03,148.69,750.36,132.53,750.36,132.53z"/>
	<path class="st3" d="M905.38,365.48c0,0-78.68,19.83-50.01,40.32c28.67,20.5,5.33,45.49-6.33,52.66
		c-11.67,7.16,9.83,24.99,56.34,21.5c46.51-3.5,64.34-56.65,46.51-56.99c-17.84-0.17-27.67-48.66,6.83-57.49s-45-34.66-41.34-21.5
		C920.88,357.15,905.38,365.48,905.38,365.48z"/>
	<path class="st3" d="M714.02,868.53c-18.17,25.83-56.01,10.33-56.01,10.33S506,767.39,511.67,848.87s-73.51,76.82-103.51,66.65
		c-24.84-8.5-29.17,34.49,12.5,93.65c3.5,0.67,7,1.33,10.33,1.83c2.5,0.5,5.17,0.83,7.83,1.17c6.5,1,13.17,1.83,19.84,2.5
		c1,0.17,2,0.17,3.17,0.33c7,0.67,14,1.17,21.17,1.67c2,0.17,4,0.17,6,0.33c7.67,0.33,15.33,0.67,23,0.67
		c39.17,0,77.34-4.67,113.85-13c17-30.83,59.84-59.15,102.34-35.49c11.83-5.67,23.34-11.66,34.67-18.16
		C755.03,911.86,725.02,853.04,714.02,868.53z"/>
</g>
</svg>
