<?xml version="1.0" encoding="utf-8"?>
<!-- Generator: Adobe Illustrator 25.3.1, SVG Export Plug-In . SVG Version: 6.00 Build 0)  -->
<svg version="1.1" id="Layer_1" xmlns="http://www.w3.org/2000/svg" xmlns:xlink="http://www.w3.org/1999/xlink" x="0px" y="0px"
	 viewBox="0 0 1024 1024" style="enable-background:new 0 0 1024 1024;" xml:space="preserve">
<style type="text/css">
	.st0{fill:#F36C2B;}
	.st1{fill:#951B1F;}
	.st2{fill:#FABE18;}
	.st3{fill:#481616;}
</style>
<g>
	<g>
		<path class="st0" d="M1017.56,512.11c0,279.24-226.36,505.56-505.66,505.56S6.44,791.36,6.44,512.11
			C6.44,232.87,232.8,6.56,511.9,6.56S1017.56,232.87,1017.56,512.11"/>
		<g>
			<path class="st1" d="M642.16,115.82c-279.3,0-505.66,226.31-505.66,505.56c0,124.84,45.35,238.9,120.27,326.98
				c74.92,43.94,162.03,69.11,255.13,69.11c279.1,0,505.66-226.31,505.66-505.56c0-124.84-45.35-238.9-120.27-326.98
				C822.37,141.18,735.26,115.82,642.16,115.82"/>
		</g>
	</g>
	<path class="st2" d="M506.51,718.05H50.2c23.38,52.33,55.34,99.87,94.1,140.82h362.41c38.96,0,70.52-31.56,70.52-70.51
		C577.03,749.61,545.46,718.05,506.51,718.05z"/>
	<path class="st3" d="M423.79,512.11c0,38.95,31.57,70.51,70.52,70.51h518.24c3.2-22.97,4.99-46.54,4.99-70.51
		c0-23.97-1.8-47.34-4.99-70.51H494.32C455.36,441.6,423.79,473.16,423.79,512.11z"/>
	<path class="st2" d="M506.51,126H185.85c-46.55,39.35-86.11,87.09-115.87,140.82h436.73c38.96,0,70.52-31.56,70.52-70.51
		C577.03,157.36,545.46,126,506.51,126z"/>
</g>
</svg>
