<?xml version="1.0" encoding="utf-8"?>
<!-- Generator: Adobe Illustrator 25.3.1, SVG Export Plug-In . SVG Version: 6.00 Build 0)  -->
<svg version="1.1" id="Layer_1" xmlns="http://www.w3.org/2000/svg" xmlns:xlink="http://www.w3.org/1999/xlink" x="0px" y="0px"
	 viewBox="0 0 1024 1024" style="enable-background:new 0 0 1024 1024;" xml:space="preserve">
<style type="text/css">
	.st0{fill:#F68820;}
	.st1{fill:#951B1F;}
	.st2{fill:#FBB687;}
</style>
<g>
	<g>
		<path class="st0" d="M686.28,37.79c262,96.26,396.4,386.58,300.14,648.7c-96.26,262.01-386.69,396.29-648.7,300.02
			s-396.4-386.69-300.14-648.7C133.96,75.8,424.28-58.59,686.28,37.79z"/>
		<path class="st1" d="M437.73,657.83c-191.59-74.86-319.2-31.93-399.32,30.18c49.71,133.58,155.1,245.4,299.32,298.38
			c262,96.26,552.43-38.13,648.7-300.02c18.36-49.94,28.31-100.83,30.53-151.24C876.58,725.21,784.41,793.28,437.73,657.83z"/>
		<path class="st2" d="M997.29,371.03C953.9,222.25,843.01,95.34,686.28,37.79c-262-96.26-552.43,38.01-648.7,300.02
			C10.68,410.92,1.91,486.24,8.69,559l71.93-25.73c56.73-20.35,115.8-30.65,175.45-30.65c98.49,0,198.49,28.54,297.21,84.68
			c47.84,27.25,96.85,41.06,145.51,41.06l0,0C866.64,628.36,945.83,484.02,997.29,371.03z"/>
		<path class="st1" d="M686.28,37.79c-262-96.26-552.43,38.01-648.7,300.02c-4.8,13.22-8.89,26.43-12.63,39.77
			c135.8-48.66,354.99-79.19,610.1,66.09c148.66,84.68,196.62-126.79,264.93-255.34C845,122.36,772.6,69.49,686.28,37.79z"/>
		<path class="st0" d="M76.18,767.55c57.08,97.67,147.03,176.85,261.54,218.96c168.43,61.88,348.44,28.31,481.2-72.99
			C314.91,893.41,512,711.76,76.18,767.55z"/>
		<path class="st0" d="M853.43,139.55C806.29,96.27,750.14,61.18,686.28,37.67c-174.51-64.1-361.66-25.85-495.59,84.22
			c415.35-4.21,310.31,82.58,427.28,112.87C672.24,248.8,765,200.02,853.43,139.55z"/>
	</g>
</g>
</svg>
