<?xml version="1.0" encoding="utf-8"?>
<!-- Generator: Adobe Illustrator 25.3.1, SVG Export Plug-In . SVG Version: 6.00 Build 0)  -->
<svg version="1.1" id="Layer_1" xmlns="http://www.w3.org/2000/svg" xmlns:xlink="http://www.w3.org/1999/xlink" x="0px" y="0px"
	 viewBox="0 0 1024 1024" style="enable-background:new 0 0 1024 1024;" xml:space="preserve">
<style type="text/css">
	.st0{fill:#D2EDF0;}
	.st1{fill:#48C2C4;}
	.st2{fill:#21448D;}
</style>
<g>
	<path class="st0" d="M8.53,511.65C8.53,233.52,233.84,8.17,511.92,8.17s503.39,225.35,503.39,503.47S790,1015.12,511.92,1015.12
		C234,1015.12,8.53,789.61,8.53,511.65z"/>
	<path class="st1" d="M114.87,820.96c43.02,55.02,96.9,100.92,158.79,134.34h476.37c61.88-33.27,115.93-79.17,158.79-134.34H114.87z
		"/>
	<path class="st1" d="M48.34,708.05H975.5c17.91-42.06,30.06-87.16,35.82-134.34H12.36C18.28,620.88,30.43,665.98,48.34,708.05z"/>
	<path class="st1" d="M11.09,460.95h1001.67c-4.64-47.02-15.99-91.96-32.62-134.34H43.71C27.08,368.99,15.72,413.93,11.09,460.95z"
		/>
	<path class="st1" d="M106.07,213.85h811.7c-39.66-53.9-89.71-99.8-147.44-134.34H253.51C195.94,114.05,145.73,159.79,106.07,213.85
		z"/>
	<path class="st2" d="M274.46,146.68c44.93,0.64,61.88-23.67,62.04-40.3c0.16-24.15-15.99-44.46-38.22-50.7
		c-48.77,22.87-93.23,53.42-131.92,90.04L274.46,146.68z"/>
	<path class="st2" d="M801.51,260.55l146-1.44c-19.51-33.59-42.7-64.61-69.08-92.6l-87.15,0.8c-28.94,0.32-52.13,23.83-51.81,52.78
		C739.63,236.88,756.58,261.19,801.51,260.55z"/>
	<path class="st2" d="M8.53,511.65c0,24.15,1.76,47.66,5.12,70.85l356.44,3.36c28.94,0.16,52.61-22.87,52.77-51.82
		c0.32-28.95-22.87-52.62-51.81-52.78l-237.46-2.24c-28.94-0.32-51.97-23.99-51.81-52.78c0.32-28.79,23.99-51.98,52.93-51.66
		l144.24,1.28c28.78,0.16,52.45-24.95,52.77-56.14s-22.71-56.78-51.65-57.1l-204.2-1.92C32.99,334.76,8.53,420.32,8.53,511.65z"/>
	<path class="st2" d="M242.95,800.01c0.32-28.95-23.03-52.46-51.81-52.78l-124.73-1.12c17.75,33.75,39.34,65.09,63.96,93.88
		l50.37,0.48C225.84,840.79,242.79,816.64,242.95,800.01z"/>
	<path class="st2" d="M590.28,519.16l375.95,3.52c21.11,0.16,39.02,14.55,47.01,34.71c1.28-15.19,2.24-30.39,2.24-45.9
		c0-27.83-2.4-55.18-6.72-81.73l-58.53-0.64l-368.43-3.36c-28.78-0.16-52.45,23.03-52.77,51.82
		C528.71,494.37,545.5,518.84,590.28,519.16z"/>
	<path class="st2" d="M1003.32,621.04c-9.59,11.36-23.19,18.39-38.38,18.39l-16.79-0.16l-295.99-2.88
		c-28.94-0.16-52.45,24.79-52.77,56.14c-0.32,31.19,22.87,56.78,51.65,57.1l144.24,1.44c28.94,0.32,52.13,23.99,51.81,52.78
		c-0.32,28.79-23.99,51.98-52.77,51.66l-196.05-1.76c-28.94-0.32-52.61,22.87-52.93,51.82c-0.16,28.79,23.03,52.46,51.81,52.78
		l144.08,1.44C872.83,892.29,970.54,768.82,1003.32,621.04z"/>
</g>
</svg>
