<?xml version="1.0" encoding="utf-8"?>
<!-- Generator: Adobe Illustrator 25.3.1, SVG Export Plug-In . SVG Version: 6.00 Build 0)  -->
<svg version="1.1" id="Layer_1" xmlns="http://www.w3.org/2000/svg" xmlns:xlink="http://www.w3.org/1999/xlink" x="0px" y="0px"
	 viewBox="0 0 1024 1024" style="enable-background:new 0 0 1024 1024;" xml:space="preserve">
<style type="text/css">
	.st0{fill:#AFDAF4;}
	.st1{fill:#4D93CF;}
	.st2{fill:#2F348C;}
</style>
<g>
	<g>
		<path class="st0" d="M1014.83,511c0-277.64-225.14-502.83-502.73-502.83S9.36,233.36,9.36,511s225.14,502.83,502.73,502.83
			C789.68,1013.83,1014.83,788.64,1014.83,511z"/>
		<path class="st1" d="M908.62,819.93c-42.89,54.89-96.84,100.79-158.65,134.14H274.21c-61.81-33.35-115.76-79.06-158.65-134.14
			H908.62z"/>
		<path class="st1" d="M975.12,707.15H49.07C31.28,665,19.1,620.03,13.29,573.01h997.6C1005.09,620.03,992.91,665.18,975.12,707.15z
			"/>
		<path class="st1" d="M1012.2,460.42H11.8c4.68-46.84,15.92-91.99,32.59-134.14h935.23C996.28,368.43,1007.52,413.39,1012.2,460.42
			z"/>
		<path class="st1" d="M917.43,213.5H106.76c39.52-53.95,89.72-99.67,147.22-134.14H770.2C827.71,113.83,877.72,159.55,917.43,213.5
			z"/>
		<path class="st2" d="M749.23,146.43c-44.77,0.56-61.81-23.61-62-40.28c-0.19-24.17,16.11-44.4,38.21-50.58
			c48.7,22.86,93.09,53.39,131.86,89.92L749.23,146.43z"/>
		<path class="st2" d="M222.89,260.15l-145.91-1.31c19.48-33.53,42.52-64.45,68.93-92.55l87.1,0.75
			c28.85,0.37,52.07,23.79,51.7,52.83C284.7,236.54,267.66,260.71,222.89,260.15z"/>
		<path class="st2" d="M1014.83,511c0,23.98-1.87,47.59-5.06,70.82l-355.88,3.37c-28.85,0.19-52.45-22.86-52.63-51.71
			c-0.37-28.85,22.85-52.46,51.7-52.83l237.32-2.25c28.85-0.19,51.88-23.98,51.7-52.83c-0.37-28.66-23.98-51.89-52.82-51.52
			l-144.04,1.31c-28.85,0.19-52.45-24.92-52.63-56.02c-0.37-31.1,22.66-56.76,51.7-56.95l203.98-1.87
			C990.48,334.34,1014.83,419.76,1014.83,511z"/>
		<path class="st2" d="M780.69,798.94c-0.37-29.04,22.85-52.46,51.88-52.83l124.56-1.12c-17.79,33.72-39.33,65.01-63.87,93.67
			l-50.39,0.56C797.92,839.79,780.88,815.62,780.69,798.94z"/>
		<path class="st2" d="M433.8,518.49l-375.36,3.56c-20.98,0.19-38.96,14.43-47.01,34.66c-1.31-14.99-2.25-30.35-2.25-45.71
			c0-27.73,2.44-55.08,6.74-81.68l58.44-0.56l368.06-3.37c28.85-0.19,52.45,22.86,52.63,51.71
			C495.24,493.76,478.57,518.12,433.8,518.49z"/>
		<path class="st2" d="M21.35,620.22c9.74,11.24,23.23,18.55,38.21,18.36l16.67-0.19l295.57-2.81
			c28.85-0.19,52.45,24.92,52.63,56.02c0.37,31.1-22.85,56.76-51.7,56.95l-144.04,1.31c-28.85,0.37-52.07,23.98-51.7,52.83
			c0.37,28.66,23.98,51.89,52.82,51.52l195.74-1.69c28.85-0.37,52.63,22.86,52.82,51.71c0.19,28.85-23.04,52.46-51.7,52.64
			l-143.85,1.5C151.71,891.12,54.13,767.85,21.35,620.22z"/>
	</g>
	<path class="st2" d="M625.98,145.49c0,49.65-40.27,90.11-90.09,90.11s-90.09-40.28-90.09-90.11s40.27-90.11,90.09-90.11
		C585.71,55.57,625.98,95.85,625.98,145.49z"/>
	<path class="st2" d="M403.83,413.96c0,35.22-28.66,63.88-63.87,63.88s-63.87-28.66-63.87-63.88s28.66-63.88,63.87-63.88
		S403.83,378.74,403.83,413.96z"/>
	<path class="st2" d="M858.24,594.93c0,47.59-38.59,86.18-86.16,86.18s-86.16-38.59-86.16-86.18c0-47.59,38.59-86.18,86.16-86.18
		C819.65,508.94,858.24,547.34,858.24,594.93z"/>
	<path class="st2" d="M687.79,860.77c0,34.1-27.72,61.82-61.81,61.82c-34.09,0-61.81-27.73-61.81-61.82
		c0-34.1,27.72-61.82,61.81-61.82C660.07,798.94,687.79,826.67,687.79,860.77z"/>
</g>
</svg>
